<svg width="202" height="202" viewBox="0 0 202 202" fill="none" xmlns="http://www.w3.org/2000/svg">
<circle cx="101" cy="101" r="101" fill="#1D1D1D"/>
<path d="M104.456 103.512C104.456 104.072 104.344 104.64 104.12 105.216C103.912 105.776 103.592 106.28 103.16 106.728C102.728 107.176 102.176 107.544 101.504 107.832C100.848 108.104 100.08 108.24 99.2 108.24C98.768 108.24 98.344 108.192 97.928 108.096C97.512 108 97.12 107.904 96.752 107.808C96.48 107.728 96.232 107.664 96.008 107.616C95.784 107.552 95.584 107.52 95.408 107.52V105.624C95.824 106.184 96.368 106.624 97.04 106.944C97.728 107.264 98.416 107.424 99.104 107.424C99.728 107.424 100.272 107.328 100.736 107.136C101.2 106.944 101.584 106.688 101.888 106.368C102.208 106.032 102.44 105.64 102.584 105.192C102.744 104.728 102.824 104.232 102.824 103.704C102.824 103.064 102.712 102.504 102.488 102.024C102.28 101.544 102 101.144 101.648 100.824C101.296 100.488 100.888 100.24 100.424 100.08C99.976 99.92 99.52 99.84 99.056 99.84C98.544 99.84 97.984 99.96 97.376 100.2C96.768 100.424 96.144 100.784 95.504 101.28L98.576 93.24H104.576L104.096 94.584H99.08C98.808 95.304 98.512 96.048 98.192 96.816C97.888 97.584 97.6 98.336 97.328 99.072C97.712 98.896 98.072 98.776 98.408 98.712C98.744 98.648 99.104 98.616 99.488 98.616C100.128 98.616 100.744 98.728 101.336 98.952C101.928 99.176 102.456 99.496 102.92 99.912C103.384 100.328 103.752 100.84 104.024 101.448C104.312 102.056 104.456 102.744 104.456 103.512Z" fill="white"/>
</svg>
