<svg width="203" height="203" viewBox="0 0 203 203" fill="none" xmlns="http://www.w3.org/2000/svg">
<circle cx="101.5" cy="101.5" r="101.5" fill="#1D1D1D"/>
<path d="M101.736 109V108.76C101.96 108.76 102.128 108.728 102.24 108.664C102.368 108.584 102.456 108.488 102.504 108.376C102.568 108.248 102.6 108.112 102.6 107.968C102.616 107.808 102.624 107.648 102.624 107.488V105.136H96.072L104.184 93.64V103.936H105.648V105.136H104.184V107.488C104.184 107.808 104.24 108.104 104.352 108.376C104.48 108.632 104.736 108.76 105.12 108.76V109H101.736ZM102.624 97.216C101.824 98.352 101.024 99.472 100.224 100.576C99.44 101.68 98.648 102.8 97.848 103.936H102.624V97.216Z" fill="white"/>
</svg>
