<svg width="202" height="202" viewBox="0 0 202 202" fill="none" xmlns="http://www.w3.org/2000/svg">
<circle cx="101" cy="101" r="101" fill="#1D1D1D"/>
<path d="M100.688 99.12C100.112 99.12 99.608 99.224 99.176 99.432C98.76 99.624 98.408 99.888 98.12 100.224C97.848 100.56 97.64 100.944 97.496 101.376C97.368 101.808 97.304 102.256 97.304 102.72C97.304 103.28 97.384 103.84 97.544 104.4C97.72 104.96 97.968 105.464 98.288 105.912C98.624 106.344 99.024 106.704 99.488 106.992C99.952 107.264 100.488 107.4 101.096 107.4C101.64 107.4 102.12 107.296 102.536 107.088C102.952 106.864 103.296 106.576 103.568 106.224C103.856 105.856 104.064 105.44 104.192 104.976C104.336 104.512 104.408 104.04 104.408 103.56C104.408 103.016 104.32 102.48 104.144 101.952C103.984 101.424 103.744 100.952 103.424 100.536C103.12 100.104 102.736 99.76 102.272 99.504C101.808 99.248 101.28 99.12 100.688 99.12ZM104.096 95.16C103.84 94.84 103.528 94.584 103.16 94.392C102.808 94.2 102.472 94.104 102.152 94.104C101.416 94.104 100.776 94.288 100.232 94.656C99.688 95.008 99.232 95.448 98.864 95.976C98.512 96.504 98.232 97.08 98.024 97.704C97.816 98.312 97.68 98.88 97.616 99.408C98.08 98.992 98.6 98.704 99.176 98.544C99.752 98.368 100.352 98.28 100.976 98.28C101.792 98.28 102.504 98.424 103.112 98.712C103.736 98.984 104.248 99.352 104.648 99.816C105.064 100.264 105.368 100.784 105.56 101.376C105.768 101.968 105.872 102.576 105.872 103.2C105.872 103.824 105.768 104.44 105.56 105.048C105.352 105.656 105.04 106.2 104.624 106.68C104.208 107.144 103.688 107.52 103.064 107.808C102.456 108.096 101.744 108.24 100.928 108.24C100.032 108.24 99.256 108.072 98.6 107.736C97.944 107.4 97.408 106.952 96.992 106.392C96.576 105.816 96.264 105.152 96.056 104.4C95.864 103.648 95.768 102.864 95.768 102.048C95.768 100.992 95.912 99.944 96.2 98.904C96.504 97.848 96.944 96.904 97.52 96.072C98.096 95.224 98.8 94.536 99.632 94.008C100.464 93.48 101.416 93.216 102.488 93.216C102.712 93.216 102.944 93.232 103.184 93.264C103.44 93.296 103.664 93.328 103.856 93.36C103.952 93.376 104.048 93.392 104.144 93.408C104.256 93.424 104.32 93.432 104.336 93.432V95.16H104.096Z" fill="white"/>
</svg>
