
<svg width="202" height="202" viewBox="0 0 202 202" fill="none" xmlns="http://www.w3.org/2000/svg">
<circle cx="101" cy="101" r="101" fill="#1D1D1D"/>
<path d="M99.496 108V107.76C99.88 107.76 100.12 107.648 100.216 107.424C100.328 107.184 100.384 106.904 100.384 106.584V95.088C100.384 94.928 100.304 94.848 100.144 94.848C100.08 94.848 99.992 94.872 99.88 94.92L97.144 95.784V94.92L102.736 92.976V93.624C102.48 93.736 102.272 93.912 102.112 94.152C101.968 94.392 101.912 94.672 101.944 94.992V106.488C101.944 106.824 102 107.12 102.112 107.376C102.224 107.632 102.48 107.76 102.88 107.76V108H99.496Z" fill="white"/>
</svg>
