<svg width="26" height="26" viewBox="0 0 26 26" fill="none" xmlns="http://www.w3.org/2000/svg">
<g id="instagram" clip-path="url(#clip0_498_1839)">
<path id="Vector" d="M19.5918 4.92676C17.6158 4.98734 17.6164 7.83018 19.5918 7.89024C21.5678 7.82966 21.5673 4.98682 19.5918 4.92676ZM13.0003 6.64224C9.49812 6.64224 6.65918 9.48872 6.65918 13C6.99328 21.4336 19.0084 21.4313 19.3412 13C19.3415 9.48872 16.5023 6.64224 13.0003 6.64224ZM13.0003 17.127C10.7271 17.127 8.88426 15.2792 8.88426 13C9.1011 7.52572 16.9006 7.52702 17.1166 13C17.1164 15.2794 15.2735 17.127 13.0003 17.127Z" fill="#292929"/>
<path id="Vector_2" d="M25.2736 7.90868C25.1821 3.57526 22.4251 0.816657 18.0906 0.725917C17.0498 0.625557 8.94978 0.623737 7.90822 0.725917C3.57481 0.817437 0.816206 3.57448 0.725466 7.90894C0.625106 8.94816 0.623026 17.0508 0.725466 18.0913C0.806326 22.4107 3.58833 25.1935 7.90822 25.2741C8.949 25.3755 17.049 25.3755 18.0906 25.2741C19.4049 25.214 20.3027 25.0052 21.0881 24.7C23.8408 23.6005 25.1857 21.1546 25.2736 18.0911C25.374 17.0503 25.3758 8.95024 25.2736 7.90868ZM17.9892 23.0513C16.9651 23.1491 9.03454 23.1507 8.00962 23.0513C6.80583 22.9965 6.15193 22.7952 5.71669 22.6262C1.95995 20.8837 3.12475 17.3599 2.94769 12.5232C2.95159 11.3997 2.94535 9.1338 2.94795 8.01034C3.09797 4.66102 4.67539 3.11038 8.00962 2.94866C9.03506 2.8509 16.9635 2.84934 17.9892 2.94866C21.3396 3.09868 22.8886 4.6761 23.0509 8.01008C23.1172 8.81062 23.1653 13.1807 23.0509 15.3923C23.1744 19.546 22.9851 22.8077 17.9892 23.0513Z" fill="#292929"/>
</g>
<defs>
<clipPath id="clip0_498_1839">
<rect width="26" height="26" fill="white"/>
</clipPath>
</defs>
</svg>
