<svg width="202" height="202" viewBox="0 0 202 202" fill="none" xmlns="http://www.w3.org/2000/svg">
<circle cx="101" cy="101" r="101" fill="#1D1D1D"/>
<path d="M95.552 94.584H95.768C95.848 94.584 95.944 94.544 96.056 94.464C96.184 94.384 96.32 94.296 96.464 94.2C96.624 94.088 96.808 93.96 97.016 93.816C97.24 93.672 97.488 93.544 97.76 93.432C98.048 93.304 98.368 93.2 98.72 93.12C99.072 93.04 99.464 93 99.896 93C100.44 93 100.968 93.08 101.48 93.24C101.992 93.384 102.448 93.616 102.848 93.936C103.248 94.24 103.568 94.632 103.808 95.112C104.048 95.592 104.168 96.168 104.168 96.84C104.168 97.4 104.072 97.912 103.88 98.376C103.688 98.84 103.424 99.272 103.088 99.672C102.768 100.072 102.4 100.456 101.984 100.824C101.584 101.176 101.168 101.528 100.736 101.88C100.32 102.216 99.912 102.56 99.512 102.912C99.128 103.264 98.776 103.632 98.456 104.016C98.152 104.4 97.896 104.816 97.688 105.264C97.48 105.696 97.36 106.16 97.328 106.656H102.32C102.928 106.656 103.408 106.552 103.76 106.344C104.112 106.12 104.296 105.76 104.312 105.264H104.528V108H95.648C95.648 107.28 95.768 106.616 96.008 106.008C96.248 105.384 96.56 104.816 96.944 104.304C97.328 103.776 97.752 103.288 98.216 102.84C98.696 102.392 99.168 101.96 99.632 101.544C100.016 101.208 100.384 100.872 100.736 100.536C101.104 100.2 101.424 99.864 101.696 99.528C101.984 99.176 102.208 98.816 102.368 98.448C102.544 98.064 102.632 97.664 102.632 97.248C102.632 96.72 102.536 96.248 102.344 95.832C102.168 95.416 101.928 95.064 101.624 94.776C101.336 94.488 101 94.272 100.616 94.128C100.232 93.968 99.848 93.888 99.464 93.888C98.648 93.888 97.928 94.136 97.304 94.632C96.68 95.112 96.176 95.736 95.792 96.504H95.552V94.584Z" fill="white"/>
</svg>
