<svg width="1643" height="493" viewBox="0 0 1643 493" fill="none" xmlns="http://www.w3.org/2000/svg">
<circle cx="101" cy="392" r="101" fill="#1D1D1D"/>
<circle cx="344" cy="238" r="101" fill="#1D1D1D"/>
<circle cx="636" cy="137" r="101" fill="#1D1D1D"/>
<circle cx="1542" cy="204" r="101" fill="#1D1D1D"/>
<circle cx="937.5" cy="101.5" r="101.5" fill="#1D1D1D"/>
<circle cx="1250" cy="131" r="101" fill="#1D1D1D"/>
<path d="M99.496 399V398.76C99.88 398.76 100.12 398.648 100.216 398.424C100.328 398.184 100.384 397.904 100.384 397.584V386.088C100.384 385.928 100.304 385.848 100.144 385.848C100.08 385.848 99.992 385.872 99.88 385.92L97.144 386.784V385.92L102.736 383.976V384.624C102.48 384.736 102.272 384.912 102.112 385.152C101.968 385.392 101.912 385.672 101.944 385.992V397.488C101.944 397.824 102 398.12 102.112 398.376C102.224 398.632 102.48 398.76 102.88 398.76V399H99.496Z" fill="white"/>
<path d="M1253.46 133.512C1253.46 134.072 1253.34 134.64 1253.12 135.216C1252.91 135.776 1252.59 136.28 1252.16 136.728C1251.73 137.176 1251.18 137.544 1250.5 137.832C1249.85 138.104 1249.08 138.24 1248.2 138.24C1247.77 138.24 1247.34 138.192 1246.93 138.096C1246.51 138 1246.12 137.904 1245.75 137.808C1245.48 137.728 1245.23 137.664 1245.01 137.616C1244.78 137.552 1244.58 137.52 1244.41 137.52V135.624C1244.82 136.184 1245.37 136.624 1246.04 136.944C1246.73 137.264 1247.42 137.424 1248.1 137.424C1248.73 137.424 1249.27 137.328 1249.74 137.136C1250.2 136.944 1250.58 136.688 1250.89 136.368C1251.21 136.032 1251.44 135.64 1251.58 135.192C1251.74 134.728 1251.82 134.232 1251.82 133.704C1251.82 133.064 1251.71 132.504 1251.49 132.024C1251.28 131.544 1251 131.144 1250.65 130.824C1250.3 130.488 1249.89 130.24 1249.42 130.08C1248.98 129.92 1248.52 129.84 1248.06 129.84C1247.54 129.84 1246.98 129.96 1246.38 130.2C1245.77 130.424 1245.14 130.784 1244.5 131.28L1247.58 123.24H1253.58L1253.1 124.584H1248.08C1247.81 125.304 1247.51 126.048 1247.19 126.816C1246.89 127.584 1246.6 128.336 1246.33 129.072C1246.71 128.896 1247.07 128.776 1247.41 128.712C1247.74 128.648 1248.1 128.616 1248.49 128.616C1249.13 128.616 1249.74 128.728 1250.34 128.952C1250.93 129.176 1251.46 129.496 1251.92 129.912C1252.38 130.328 1252.75 130.84 1253.02 131.448C1253.31 132.056 1253.46 132.744 1253.46 133.512Z" fill="white"/>
<path d="M937.736 109V108.76C937.96 108.76 938.128 108.728 938.24 108.664C938.368 108.584 938.456 108.488 938.504 108.376C938.568 108.248 938.6 108.112 938.6 107.968C938.616 107.808 938.624 107.648 938.624 107.488V105.136H932.072L940.184 93.64V103.936H941.648V105.136H940.184V107.488C940.184 107.808 940.24 108.104 940.352 108.376C940.48 108.632 940.736 108.76 941.12 108.76V109H937.736ZM938.624 97.216C937.824 98.352 937.024 99.472 936.224 100.576C935.44 101.68 934.648 102.8 933.848 103.936H938.624V97.216Z" fill="white"/>
<path d="M630.672 129.696H630.888C631.016 129.696 631.152 129.672 631.296 129.624C631.44 129.576 631.6 129.52 631.776 129.456C632.048 129.36 632.376 129.264 632.76 129.168C633.144 129.056 633.616 129 634.176 129C634.816 129 635.384 129.096 635.88 129.288C636.392 129.464 636.816 129.712 637.152 130.032C637.504 130.336 637.768 130.696 637.944 131.112C638.136 131.528 638.232 131.96 638.232 132.408C638.232 133.032 638.04 133.632 637.656 134.208C637.288 134.784 636.712 135.248 635.928 135.6C637.032 135.92 637.856 136.432 638.4 137.136C638.944 137.84 639.216 138.64 639.216 139.536C639.216 140.208 639.088 140.832 638.832 141.408C638.592 141.968 638.232 142.464 637.752 142.896C637.288 143.312 636.728 143.64 636.072 143.88C635.416 144.12 634.68 144.24 633.864 144.24C633.256 144.24 632.752 144.184 632.352 144.072C631.952 143.96 631.616 143.856 631.344 143.76C631.168 143.696 631.008 143.648 630.864 143.616C630.72 143.568 630.576 143.544 630.432 143.544H630.216V141.696H630.456C630.872 142.272 631.384 142.712 631.992 143.016C632.616 143.304 633.256 143.448 633.912 143.448C634.488 143.448 635.008 143.352 635.472 143.16C635.936 142.952 636.328 142.68 636.648 142.344C636.984 142.008 637.232 141.624 637.392 141.192C637.568 140.76 637.656 140.312 637.656 139.848C637.656 139.368 637.56 138.904 637.368 138.456C637.176 137.992 636.904 137.584 636.552 137.232C636.2 136.88 635.768 136.6 635.256 136.392C634.76 136.184 634.192 136.08 633.552 136.08H632.448V135.288H633.672C634.168 135.288 634.6 135.208 634.968 135.048C635.352 134.888 635.672 134.672 635.928 134.4C636.184 134.128 636.376 133.824 636.504 133.488C636.632 133.152 636.696 132.8 636.696 132.432C636.696 132.096 636.632 131.768 636.504 131.448C636.392 131.128 636.216 130.848 635.976 130.608C635.736 130.352 635.44 130.144 635.088 129.984C634.752 129.824 634.36 129.744 633.912 129.744C633.368 129.744 632.824 129.896 632.28 130.2C631.736 130.504 631.28 130.96 630.912 131.568H630.672V129.696Z" fill="white"/>
<path d="M338.552 231.584H338.768C338.848 231.584 338.944 231.544 339.056 231.464C339.184 231.384 339.32 231.296 339.464 231.2C339.624 231.088 339.808 230.96 340.016 230.816C340.24 230.672 340.488 230.544 340.76 230.432C341.048 230.304 341.368 230.2 341.72 230.12C342.072 230.04 342.464 230 342.896 230C343.44 230 343.968 230.08 344.48 230.24C344.992 230.384 345.448 230.616 345.848 230.936C346.248 231.24 346.568 231.632 346.808 232.112C347.048 232.592 347.168 233.168 347.168 233.84C347.168 234.4 347.072 234.912 346.88 235.376C346.688 235.84 346.424 236.272 346.088 236.672C345.768 237.072 345.4 237.456 344.984 237.824C344.584 238.176 344.168 238.528 343.736 238.88C343.32 239.216 342.912 239.56 342.512 239.912C342.128 240.264 341.776 240.632 341.456 241.016C341.152 241.4 340.896 241.816 340.688 242.264C340.48 242.696 340.36 243.16 340.328 243.656H345.32C345.928 243.656 346.408 243.552 346.76 243.344C347.112 243.12 347.296 242.76 347.312 242.264H347.528V245H338.648C338.648 244.28 338.768 243.616 339.008 243.008C339.248 242.384 339.56 241.816 339.944 241.304C340.328 240.776 340.752 240.288 341.216 239.84C341.696 239.392 342.168 238.96 342.632 238.544C343.016 238.208 343.384 237.872 343.736 237.536C344.104 237.2 344.424 236.864 344.696 236.528C344.984 236.176 345.208 235.816 345.368 235.448C345.544 235.064 345.632 234.664 345.632 234.248C345.632 233.72 345.536 233.248 345.344 232.832C345.168 232.416 344.928 232.064 344.624 231.776C344.336 231.488 344 231.272 343.616 231.128C343.232 230.968 342.848 230.888 342.464 230.888C341.648 230.888 340.928 231.136 340.304 231.632C339.68 232.112 339.176 232.736 338.792 233.504H338.552V231.584Z" fill="white"/>
<path d="M1541.69 202.12C1541.11 202.12 1540.61 202.224 1540.18 202.432C1539.76 202.624 1539.41 202.888 1539.12 203.224C1538.85 203.56 1538.64 203.944 1538.5 204.376C1538.37 204.808 1538.3 205.256 1538.3 205.72C1538.3 206.28 1538.38 206.84 1538.54 207.4C1538.72 207.96 1538.97 208.464 1539.29 208.912C1539.62 209.344 1540.02 209.704 1540.49 209.992C1540.95 210.264 1541.49 210.4 1542.1 210.4C1542.64 210.4 1543.12 210.296 1543.54 210.088C1543.95 209.864 1544.3 209.576 1544.57 209.224C1544.86 208.856 1545.06 208.44 1545.19 207.976C1545.34 207.512 1545.41 207.04 1545.41 206.56C1545.41 206.016 1545.32 205.48 1545.14 204.952C1544.98 204.424 1544.74 203.952 1544.42 203.536C1544.12 203.104 1543.74 202.76 1543.27 202.504C1542.81 202.248 1542.28 202.12 1541.69 202.12ZM1545.1 198.16C1544.84 197.84 1544.53 197.584 1544.16 197.392C1543.81 197.2 1543.47 197.104 1543.15 197.104C1542.42 197.104 1541.78 197.288 1541.23 197.656C1540.69 198.008 1540.23 198.448 1539.86 198.976C1539.51 199.504 1539.23 200.08 1539.02 200.704C1538.82 201.312 1538.68 201.88 1538.62 202.408C1539.08 201.992 1539.6 201.704 1540.18 201.544C1540.75 201.368 1541.35 201.28 1541.98 201.28C1542.79 201.28 1543.5 201.424 1544.11 201.712C1544.74 201.984 1545.25 202.352 1545.65 202.816C1546.06 203.264 1546.37 203.784 1546.56 204.376C1546.77 204.968 1546.87 205.576 1546.87 206.2C1546.87 206.824 1546.77 207.44 1546.56 208.048C1546.35 208.656 1546.04 209.2 1545.62 209.68C1545.21 210.144 1544.69 210.52 1544.06 210.808C1543.46 211.096 1542.74 211.24 1541.93 211.24C1541.03 211.24 1540.26 211.072 1539.6 210.736C1538.94 210.4 1538.41 209.952 1537.99 209.392C1537.58 208.816 1537.26 208.152 1537.06 207.4C1536.86 206.648 1536.77 205.864 1536.77 205.048C1536.77 203.992 1536.91 202.944 1537.2 201.904C1537.5 200.848 1537.94 199.904 1538.52 199.072C1539.1 198.224 1539.8 197.536 1540.63 197.008C1541.46 196.48 1542.42 196.216 1543.49 196.216C1543.71 196.216 1543.94 196.232 1544.18 196.264C1544.44 196.296 1544.66 196.328 1544.86 196.36C1544.95 196.376 1545.05 196.392 1545.14 196.408C1545.26 196.424 1545.32 196.432 1545.34 196.432V198.16H1545.1Z" fill="white"/>
</svg>
