<svg width="202" height="202" viewBox="0 0 202 202" fill="none" xmlns="http://www.w3.org/2000/svg">
<circle cx="101" cy="101" r="101" fill="#1D1D1D"/>
<path d="M95.672 93.696H95.888C96.016 93.696 96.152 93.672 96.296 93.624C96.44 93.576 96.6 93.52 96.776 93.456C97.048 93.36 97.376 93.264 97.76 93.168C98.144 93.056 98.616 93 99.176 93C99.816 93 100.384 93.096 100.88 93.288C101.392 93.464 101.816 93.712 102.152 94.032C102.504 94.336 102.768 94.696 102.944 95.112C103.136 95.528 103.232 95.96 103.232 96.408C103.232 97.032 103.04 97.632 102.656 98.208C102.288 98.784 101.712 99.248 100.928 99.6C102.032 99.92 102.856 100.432 103.4 101.136C103.944 101.84 104.216 102.64 104.216 103.536C104.216 104.208 104.088 104.832 103.832 105.408C103.592 105.968 103.232 106.464 102.752 106.896C102.288 107.312 101.728 107.64 101.072 107.88C100.416 108.12 99.68 108.24 98.864 108.24C98.256 108.24 97.752 108.184 97.352 108.072C96.952 107.96 96.616 107.856 96.344 107.76C96.168 107.696 96.008 107.648 95.864 107.616C95.72 107.568 95.576 107.544 95.432 107.544H95.216V105.696H95.456C95.872 106.272 96.384 106.712 96.992 107.016C97.616 107.304 98.256 107.448 98.912 107.448C99.488 107.448 100.008 107.352 100.472 107.16C100.936 106.952 101.328 106.68 101.648 106.344C101.984 106.008 102.232 105.624 102.392 105.192C102.568 104.76 102.656 104.312 102.656 103.848C102.656 103.368 102.56 102.904 102.368 102.456C102.176 101.992 101.904 101.584 101.552 101.232C101.2 100.88 100.768 100.6 100.256 100.392C99.76 100.184 99.192 100.08 98.552 100.08H97.448V99.288H98.672C99.168 99.288 99.6 99.208 99.968 99.048C100.352 98.888 100.672 98.672 100.928 98.4C101.184 98.128 101.376 97.824 101.504 97.488C101.632 97.152 101.696 96.8 101.696 96.432C101.696 96.096 101.632 95.768 101.504 95.448C101.392 95.128 101.216 94.848 100.976 94.608C100.736 94.352 100.44 94.144 100.088 93.984C99.752 93.824 99.36 93.744 98.912 93.744C98.368 93.744 97.824 93.896 97.28 94.2C96.736 94.504 96.28 94.96 95.912 95.568H95.672V93.696Z" fill="white"/>
</svg>
